<svg id="Layer_1" enable-background="new 0 0 512 512" height="512" viewBox="0 0 512 512" width="512" xmlns="http://www.w3.org/2000/svg"><g><path d="m416.667 384.533c30.713 0 55.699-24.987 55.699-55.7s-24.986-55.7-55.699-55.7-55.7 24.987-55.7 55.7c0 30.714 24.987 55.7 55.7 55.7z"/><path d="m416.667 384.533c-52.567 0-95.334 42.767-95.334 95.334v17.133c0 8.284 6.716 15 15 15h160.667c8.284 0 15-6.716 15-15v-17.133c0-52.567-42.765-95.334-95.333-95.334z"/><path d="m351.333 256v-32.133c0-8.284-6.716-15-15-15-7.329 0-13.42 5.259-14.73 12.207-18.62-14.753-41.496-22.763-65.603-22.763-28.272 0-54.858 11.011-74.865 31.008l-.008.008c-5.857 5.857-5.854 15.35.003 21.208 5.855 5.857 15.357 5.855 21.215 0 14.339-14.332 33.394-22.224 53.655-22.224 15.69 0 30.645 4.752 43.257 13.541-5.852 2.045-10.057 7.599-10.057 14.149 0 8.284 6.716 15 15 15h32.133c8.284-.001 15-6.717 15-15.001z"/><path d="m191.733 94.267h2.88c1.555 6.362 4.063 12.354 7.384 17.802l-12.832 12.82c-5.861 5.855-5.865 15.353-.01 21.213s15.352 5.866 21.213.01l12.845-12.833c5.444 3.317 11.43 5.821 17.786 7.374v2.88c0 8.284 6.716 15 15 15s15-6.716 15-15v-2.88c6.356-1.553 12.342-4.058 17.786-7.374l12.846 12.833c5.861 5.855 15.358 5.85 21.213-.01 5.855-5.861 5.851-15.358-.01-21.213l-12.833-12.821c3.321-5.448 5.829-11.439 7.384-17.801h2.88c8.284 0 15-6.716 15-15s-6.716-15-15-15h-2.88c-1.555-6.362-4.063-12.353-7.384-17.801l12.833-12.82c5.861-5.855 5.865-15.353.01-21.213s-15.352-5.866-21.213-.01l-12.845 12.833c-5.444-3.317-11.431-5.821-17.786-7.375v-2.881c0-8.284-6.716-15-15-15s-15 6.716-15 15v2.88c-6.356 1.553-12.343 4.058-17.786 7.375l-12.845-12.833c-5.861-5.855-15.358-5.85-21.213.01-5.855 5.861-5.851 15.358.01 21.213l12.833 12.82c-3.321 5.448-5.829 11.44-7.384 17.801h-2.88c-8.284 0-15 6.716-15 15s6.714 15.001 14.998 15.001z"/><path d="m95.334 384.533c30.713 0 55.699-24.987 55.699-55.7s-24.986-55.7-55.699-55.7-55.7 24.987-55.7 55.7c0 30.714 24.987 55.7 55.7 55.7z"/><path d="m95.334 384.533c-52.567 0-95.334 42.767-95.334 95.334v17.133c0 8.284 6.716 15 15 15h160.667c8.284 0 15-6.716 15-15v-17.133c0-52.567-42.765-95.334-95.333-95.334z"/></g></svg>