<?xml version="1.0" encoding="iso-8859-1"?>
<!-- Generator: Adobe Illustrator 19.0.0, SVG Export Plug-In . SVG Version: 6.00 Build 0)  -->
<svg xmlns="http://www.w3.org/2000/svg" xmlns:xlink="http://www.w3.org/1999/xlink" version="1.1" id="Layer_1" x="0px" y="0px" viewBox="0 0 512 512" style="enable-background:new 0 0 512 512;" xml:space="preserve" width="512" height="512">
<g>
	<path d="M472,120.954H40c-22.056,0-40,17.944-40,40v190.092c0,22.056,17.944,40,40,40h432c21.683,0,40-17.504,40-38.224V162.73   C512,139.305,494.43,120.954,472,120.954z M458.609,197.315c-2.8,2.79-6.67,4.39-10.609,4.39c-3.95,0-7.811-1.6-10.61-4.39   c-2.79-2.79-4.39-6.66-4.39-10.61c0-3.95,1.6-7.82,4.39-10.61s6.66-4.39,10.61-4.39s7.81,1.6,10.609,4.39   c2.79,2.8,4.391,6.66,4.391,10.61C463,190.655,461.399,194.515,458.609,197.315z M463,326.705c0,3.95-1.601,7.81-4.391,10.61   c-2.8,2.79-6.67,4.39-10.609,4.39c-3.95,0-7.811-1.6-10.61-4.39c-2.79-2.79-4.39-6.66-4.39-10.61c0-3.95,1.6-7.82,4.39-10.61   s6.66-4.39,10.61-4.39s7.81,1.6,10.609,4.39C461.399,318.895,463,322.755,463,326.705z M410,236.028   c0,19.117-15.553,34.671-34.67,34.671h-44.011v24.34c0,8.284-6.716,15-15,15s-15-6.716-15-15v-78.681c0-8.284,6.716-15,15-15   h59.011C394.447,201.358,410,216.911,410,236.028z M272,217v78c0,8.284-6.716,15-15,15s-15-6.716-15-15v-78c0-8.284,6.716-15,15-15   S272,208.716,272,217z M214.287,284.433c5.858,5.857,5.858,15.355,0,21.213c-2.929,2.929-6.768,4.394-10.606,4.394   s-7.678-1.465-10.606-4.394l-34.946-34.946H132v24.34c0,8.284-6.716,15-15,15s-15-6.716-15-15v-78.681c0-8.284,6.716-15,15-15   h59.011c19.117,0,34.67,15.553,34.67,34.67c0,12.144-6.281,22.843-15.76,29.038L214.287,284.433z M74.609,197.315   c-2.8,2.79-6.67,4.39-10.609,4.39c-3.95,0-7.811-1.6-10.61-4.39c-2.79-2.79-4.39-6.66-4.39-10.61c0-3.95,1.6-7.82,4.39-10.61   s6.66-4.39,10.61-4.39s7.81,1.6,10.609,4.39c2.79,2.8,4.391,6.66,4.391,10.61C79,190.655,77.399,194.515,74.609,197.315z    M79,326.705c0,3.95-1.601,7.81-4.391,10.61c-2.8,2.79-6.67,4.39-10.609,4.39c-3.95,0-7.811-1.6-10.61-4.39   c-2.79-2.79-4.39-6.66-4.39-10.61c0-3.95,1.6-7.82,4.39-10.61s6.66-4.39,10.61-4.39s7.81,1.6,10.609,4.39   C77.399,318.895,79,322.755,79,326.705z"/>
	<path d="M176.011,231.358H132v9.341h44.011c2.575,0,4.67-2.096,4.67-4.671S178.586,231.358,176.011,231.358z"/>
	<path d="M375.33,231.358h-44.011v9.341h44.011c2.575,0,4.67-2.096,4.67-4.671S377.905,231.358,375.33,231.358z"/>
</g>















</svg>
