<svg id="Capa_1" enable-background="new 0 0 512 512" height="512" viewBox="0 0 512 512" width="512" xmlns="http://www.w3.org/2000/svg"><g><path d="m91 436h331c33.084 0 60 26.916 60 60h30v-236.712c-8.452-2.088-16.076-4.104-30-7.302v-235.986h-30v37.474c-35.107-13.526-109.484-37.474-196-37.474s-160.893 23.948-196 37.474v-37.474h-30v235.986c-13.93 3.199-21.603 5.228-30 7.302v236.712h30c0-33.084 27.364-60 61-60zm-31-350.169c25.407-10.543 104.252-39.831 196-39.831 91.514 0 170.551 29.307 196 39.842v159.738c-19.989-3.949-40.088-7.287-60.265-10.014.161-3.219.265-6.417.265-9.565 0-17.96-2.54-36.462-7.559-55.088 4.961-10.233 7.559-21.29 7.559-32.337v-32.576h-32.574c-9.496 0-18.927 1.916-28.099 5.702-18.573-2.744-45.518-5.702-75.327-5.702-23.862 0-48.847 1.917-74.33 5.7-9.171-3.785-18.601-5.7-28.096-5.7h-32.574v32.574c0 11.048 2.598 22.105 7.559 32.338-5.018 18.63-7.559 37.132-7.559 55.088 0 3.104.102 6.259.259 9.432-20.511 2.751-40.942 6.133-61.259 10.147zm91.12 146.048c-.073-1.977-.12-3.941-.12-5.879 0-30.968 8.994-55.045 9.895-58.856-1.55-3.251-9.895-13.213-9.895-28.57v-2.574h2.574c12.386 0 21.108 5.724 23.696 6.737 3.168-.388 37.285-6.737 78.73-6.737 36.805 0 62.175 4.343 79.729 6.737 2.639-1.032 11.309-6.737 23.696-6.737h2.575v2.574c0 15.353-8.358 25.345-9.896 28.57.93 3.933 9.896 27.971 9.896 58.856 0 1.971-.049 3.97-.125 5.981-70.01-7.346-140.738-7.379-210.755-.102zm-121.12 50.905c148.12-35.131 303.878-35.131 452 0v146.188c-15.935-14.278-36.971-22.972-60-22.972h-331c-22.661 0-44.162 8.281-61 23.406z"/><path d="m241 376h30v-30h30v-30h-30v-30h-30v30h-30v30h30z"/></g></svg>