<svg id="Capa_1" enable-background="new 0 0 512 512" height="512" viewBox="0 0 512 512" width="512" xmlns="http://www.w3.org/2000/svg"><g><path d="m482 241h-211v-60h30v-121h-30v-30h30v-30h-210v181h-61v-60h-30v165c0 24.813 20.187 45 45 45h57.435l120.218 60.549-85.474 43.05c-8.094-7.792-19.083-12.599-31.179-12.599-24.813 0-45 20.187-45 45s20.187 45 45 45c19.555 0 36.228-12.542 42.42-30h215.16c6.192 17.458 22.865 30 42.42 30 24.813 0 45-20.187 45-45s-20.187-45-45-45c-12.096 0-23.085 4.807-31.18 12.599l-85.474-43.05 120.219-60.549h57.435c24.813 0 45-20.187 45-45 0-21.437 0-83.612 0-105h-30zm-211-90h-30v-61h30zm-150-121h120v30h-30v121h30v60h-30v-15c0-24.813-20.187-45-45-45h-45zm60 211h-60v-30h45c8.271 0 15 6.729 15 15zm-151-30h61v30h-61zm0 75v-15h151v30h-136c-8.271 0-15-6.729-15-15zm76 196c-8.271 0-15-6.729-15-15s6.729-15 15-15 15 6.729 15 15-6.729 15-15 15zm300-30c8.271 0 15 6.729 15 15s-6.729 15-15 15-15-6.729-15-15 6.729-15 15-15zm-63.324 0h-173.352l86.676-43.655zm-86.676-77.246-86.871-43.754h173.743zm226-88.754c0 8.271-6.729 15-15 15h-256v-30h271z"/></g></svg>