<svg id="Layer_1" enable-background="new 0 0 509.836 509.836" height="512" viewBox="0 0 509.836 509.836" width="512" xmlns="http://www.w3.org/2000/svg"><g><circle cx="203.472" cy="41.963" r="41.963"/><path d="m214.045 241.91c-6.987-18.531-10.529-37.839-10.529-57.385v-25.262c0-6.455 5.233-11.688 11.688-11.688 20.594 0 35.312-16.467 29.804-32.772-2.257-6.681 1.882-13.847 8.822-15.209l9.843-1.932c-4.324-.515 4.205-.36-114.549-.36-26.744 0-48.609 21.387-48.741 47.675v.101 148.748c0 11.182 9.065 20.247 20.247 20.247s20.247-9.065 20.247-20.247v-148.685c.044-3.849 4.297-7.346 8.58-7.346v347.745c0 13.419 11.054 24.297 24.472 24.297s24.296-10.878 24.296-24.297v-194.205h10.492v194.205c0 13.419 10.878 24.297 24.296 24.297s24.296-10.878 24.296-24.297v-177.96c-19.315-20.234-33.509-39.796-43.264-65.67z"/><path d="m409.453 184.525v-18.785c0-4.851-3.606-8.92-8.42-9.518-21.528-2.675-36.922-19.372-36.499-37.829.107-4.667-3.158-8.744-7.739-9.643-7.601-1.492-21.141-4.151-44.466-8.73l-46.807 9.19c-4.791.941-8.097 5.319-7.736 10.189 1.385 18.679-13.465 35.668-34.48 39.196-4.662.782-8.101 4.772-8.101 9.499v16.432c0 36.433 13.367 71.895 38.122 101.107 19.1 22.539 41.765 43.927 59.003 43.927 17.237 0 39.903-21.388 59.003-43.927 24.754-29.213 38.12-64.675 38.12-101.108zm-61.534 54.648-10.223-10.223h-13.192v13.192l10.223 10.223-22.398 22.398-22.398-22.398 10.223-10.223v-13.192h-13.191l-10.223 10.223-22.398-22.398 22.398-22.398 10.223 10.223h13.192v-13.192l-10.223-10.223 22.398-22.398 22.398 22.398-10.223 10.223v13.191h13.192l10.223-10.223 22.398 22.398z"/></g></svg>