<svg id="Layer_1_1_" enable-background="new 0 0 64 64" height="512" viewBox="0 0 64 64" width="512" xmlns="http://www.w3.org/2000/svg"><path d="m12.16992 8.94922-.16992.16113-.16943-.16113c-1.32617-1.25781-3.48291-1.25781-4.80811 0-.65918.625-1.02246 1.45996-1.02246 2.35254 0 .8916.36279 1.72852 1.02197 2.35449l4.28955 4.06934c.19336.18261.44092.27441.68848.27441s.49512-.0918.68848-.27441l4.28955-4.06934c.65918-.62598 1.02197-1.46289 1.02197-2.35449 0-.89258-.36328-1.72754-1.02197-2.35254-1.32617-1.25781-3.48291-1.25781-4.80811 0zm3.43115 3.25586-3.60107 3.41699-3.60107-3.41699c-.25733-.24414-.39893-.56446-.39893-.90332 0-.33789.1416-.65723.39893-.90137.2832-.26855.65527-.40332 1.02734-.40332s.74414.13477 1.02783.40332l.85791.81348c.38574.36523.99023.36523 1.37598 0l.85791-.81348h.00049c.56641-.53906 1.48779-.53711 2.05518 0 .25683.24414.39843.56348.39843.90137 0 .33886-.1416.65918-.39893.90332z"/><path d="m57 7h-36.34912c-1.77979-3.08691-5.02588-4.9873-8.61475-5-.01123 0-.02295 0-.03418 0-5.35449 0-9.83594 4.34082-9.99707 9.69141-.08252 2.73145.91846 5.31445 2.81787 7.27148 1.89991 1.95899 4.44922 3.03711 7.17725 3.03711 3.60449 0 6.86426-1.90039 8.65088-5h21.34912v6.58594l-5.04132 5.04132c-1.08106-1.58447-2.8999-2.62726-4.95868-2.62726-3.30859 0-6 2.69141-6 6 0 1.53754.58618 2.93719 1.54047 4h-5.1264l-5.70703-5.70703c-.39062-.39062-1.02344-.39062-1.41406 0l-3 3c-.39062.39062-.39062 1.02344 0 1.41406l7 7c.18749.1875.44188.29297.70702.29297h6v19c0 .55273.44775 1 1 1h5 5c.55225 0 1-.44727 1-1v-12h3c.55225 0 1-.44727 1-1v-7c0-2.75684-2.24316-5-5-5h-.54047c.95429-1.06281 1.54047-2.46246 1.54047-4 0-.48682-.0647-.95782-.17462-1.41132l5.88165-5.88165c.1875-.1875.29297-.44141.29297-.70703v-7h13c2.75684 0 5-2.24316 5-5s-2.24316-5-5-5zm-17 34v6h-2v-6h-2v19h-3v-11h-2v11h-3v-19c0-.55273-.44775-1-1-1h-6.58594l-6-6 1.58594-1.58594 5.29297 5.29297c.1875.1875.44189.29297.70703.29297h15c1.6543 0 3 1.3457 3 3zm-12-9c0-2.20605 1.79443-4 4-4s4 1.79395 4 4-1.79443 4-4 4-4-1.79395-4-4zm29-17h-36.94678c-.37939 0-.72607.21484-.89502.55469-1.36474 2.74219-4.10791 4.44531-7.1582 4.44531-2.18262 0-4.22168-.86328-5.74219-2.42969-1.51953-1.56641-2.31982-3.63281-2.25391-5.81836.12891-4.28027 3.71387-7.75195 7.99756-7.75195h.02783c3.0376.01074 5.76953 1.71484 7.12891 4.44531.16895.33985.51563.55469.89502.55469h36.94678c1.6543 0 3 1.3457 3 3s-1.3457 3-3 3z"/><path d="m20 11h28v2h-28z"/></svg>